<?xml version="1.0" encoding="utf-8"?>
<!-- Generator: Adobe Illustrator 22.0.1, SVG Export Plug-In . SVG Version: 6.00 Build 0)  -->
<svg version="1.1" id="Layer_1" xmlns="http://www.w3.org/2000/svg" xmlns:xlink="http://www.w3.org/1999/xlink" x="0px" y="0px"
	 viewBox="0 0 323 40" style="enable-background:new 0 0 323 40;" xml:space="preserve">
<style type="text/css">
	.st0{opacity:0.4;fill:#FFFFFF;enable-background:new    ;}
	.st1{fill:#FFFFFF;}
</style>
<g id="Docs">
	<path id="docs" class="st0" d="M0,30.8h3.1c2.6,0,4.3,1.7,4.3,4.4s-1.7,4.4-4.3,4.4H0V30.8z M3,38c1.7,0,2.6-1.1,2.6-2.8
		S4.7,32.4,3,32.4H1.8v5.5L3,38L3,38z M12.8,39.7c-2.4,0-4.1-1.9-4.1-4.5s1.7-4.5,4.1-4.5s4.1,1.9,4.1,4.5
		C16.9,37.8,15.2,39.7,12.8,39.7z M12.8,32.3c-1.4,0-2.3,1.2-2.3,2.9s0.9,2.9,2.3,2.9s2.3-1.2,2.3-2.9S14.2,32.3,12.8,32.3z
		 M22.5,30.7c1,0,1.7,0.3,2.3,0.7v1.8c-0.7-0.6-1.4-0.9-2.2-0.9c-1.6,0-2.6,1.1-2.6,2.8s1,2.8,2.6,2.8c0.8,0,1.5-0.3,2.2-0.8v1.8
		c-0.6,0.4-1.3,0.7-2.3,0.7c-2.5,0-4.3-1.8-4.3-4.5C18.2,32.5,20,30.7,22.5,30.7z M26.6,36.1v-5.2h1.8v5c0,1.5,0.7,2.2,1.8,2.2
		s1.8-0.7,1.8-2.2v-5h1.8v5.2c0,2.4-1.4,3.6-3.6,3.6C28.1,39.7,26.6,38.5,26.6,36.1z M40.2,37.7L37.7,34v5.6h-1.8v-8.7h1.7l2.6,4.1
		l2.6-4.1h1.7v8.7h-1.8V34L40.2,37.7L40.2,37.7z M52.7,30.8v1.6h-4.1v1.9h3.7v1.5h-3.7v2.1h4.1v1.6h-5.9v-8.7
		C46.8,30.8,52.7,30.8,52.7,30.8z M61.9,39.6h-1.4l-4.1-5.8v5.8h-1.7v-8.7h1.7l3.8,5.5v-5.5h1.7V39.6z M63.4,30.8h7.4v1.6H68v7.1
		h-1.8v-7.1h-2.8C63.4,32.4,63.4,30.8,63.4,30.8z M75.9,30.8l3.3,8.7h-1.8l-0.8-2.1h-3.3l-0.8,2.1h-1.8l3.3-8.7
		C74,30.8,75.9,30.8,75.9,30.8z M73.9,35.9H76L74.9,33L73.9,35.9z M79.1,30.8h7.4v1.6h-2.8v7.1h-1.8v-7.1h-2.8
		C79.1,32.4,79.1,30.8,79.1,30.8z M89.8,39.6H88v-8.7h1.8V39.6z M95.6,39.7c-2.4,0-4.1-1.9-4.1-4.5s1.7-4.5,4.1-4.5s4.1,1.9,4.1,4.5
		C99.8,37.8,98.1,39.7,95.6,39.7z M95.6,32.3c-1.4,0-2.3,1.2-2.3,2.9s0.9,2.9,2.3,2.9s2.3-1.2,2.3-2.9S97,32.3,95.6,32.3z
		 M108.8,39.6h-1.4l-4.1-5.8v5.8h-1.7v-8.7h1.7l3.8,5.5v-5.5h1.7V39.6z M118.7,30.8l3.3,8.7h-1.8l-0.8-2.1h-3.3l-0.8,2.1h-1.8
		l3.3-8.7C116.8,30.8,118.7,30.8,118.7,30.8z M116.8,35.9h2.1l-1.1-2.9L116.8,35.9z M130.8,39.6h-1.4l-4.1-5.8v5.8h-1.7v-8.7h1.7
		l3.8,5.5v-5.5h1.7V39.6z M133,30.8h3.1c2.6,0,4.3,1.7,4.3,4.4s-1.7,4.4-4.3,4.4H133V30.8z M136,38c1.7,0,2.6-1.1,2.6-2.8
		s-0.9-2.8-2.6-2.8h-1.2v5.5L136,38L136,38z M149.9,30.8l3.3,8.7h-1.8l-0.8-2.1h-3.3l-0.8,2.1h-1.8l3.3-8.7
		C148,30.8,149.9,30.8,149.9,30.8z M147.9,35.9h2.1l-1.1-2.9L147.9,35.9z M156.4,36.5v3h-1.8v-8.7h3.5c1.8,0,3.1,1,3.1,2.9
		c0,1.8-1.2,2.8-3.1,2.8H156.4z M158.1,32.4h-1.6V35h1.6c0.9,0,1.4-0.5,1.4-1.3C159.4,32.9,159,32.4,158.1,32.4z M164.6,39.6h-1.8
		v-8.7h1.8V39.6z M171.8,36.3v3.3H170v-8.7h3.6c1.8,0,3.1,1,3.1,2.8c0,1.4-0.8,2.3-2,2.6l2.3,3.4h-2l-2.2-3.3L171.8,36.3L171.8,36.3
		z M171.8,34.8h1.7c0.9,0,1.4-0.5,1.4-1.2s-0.5-1.2-1.4-1.2h-1.7V34.8z M184.3,30.8v1.6h-4.1v1.9h3.7v1.5h-3.7v2.1h4.1v1.6h-5.9
		v-8.7C178.4,30.8,184.3,30.8,184.3,30.8z M186.3,39.6v-8.7h5.8v1.6h-4v2.2h3.7v1.6h-3.7v3.3C188.1,39.6,186.3,39.6,186.3,39.6z
		 M199.7,30.8v1.6h-4.1v1.9h3.7v1.5h-3.7v2.1h4.1v1.6h-5.9v-8.7C193.8,30.8,199.7,30.8,199.7,30.8z M203.5,36.3v3.3h-1.8v-8.7h3.6
		c1.8,0,3.1,1,3.1,2.8c0,1.4-0.8,2.3-2,2.6l2.3,3.4h-2l-2.2-3.3L203.5,36.3L203.5,36.3z M203.5,34.8h1.7c0.9,0,1.4-0.5,1.4-1.2
		s-0.5-1.2-1.4-1.2h-1.7V34.8z M216,30.8v1.6h-4.1v1.9h3.7v1.5h-3.7v2.1h4.1v1.6h-5.9v-8.7C210.1,30.8,216,30.8,216,30.8z
		 M225.3,39.6h-1.4l-4.1-5.8v5.8H218v-8.7h1.7l3.8,5.5v-5.5h1.7v8.7H225.3z M231.4,30.7c1,0,1.7,0.3,2.3,0.7v1.8
		c-0.7-0.6-1.4-0.9-2.2-0.9c-1.6,0-2.6,1.1-2.6,2.8s1,2.8,2.6,2.8c0.8,0,1.5-0.3,2.2-0.8v1.8c-0.6,0.4-1.3,0.7-2.3,0.7
		c-2.5,0-4.3-1.8-4.3-4.5C227.1,32.5,228.9,30.7,231.4,30.7z M241.5,30.8v1.6h-4.1v1.9h3.7v1.5h-3.7v2.1h4.1v1.6h-5.9v-8.7
		C235.6,30.8,241.5,30.8,241.5,30.8z"/>
</g>
<g>
	<g>
		<path class="st1" d="M0.7,1.2h16.3v1.5H9.7v18.5H8.1V2.7H0.7V1.2z"/>
		<path class="st1" d="M21.9,20.1c1.6,0,2.8-0.4,4.1-1.4v1.6c-1.1,0.9-2.5,1.3-4.2,1.3c-4,0-6.8-2.9-6.8-7.4c0-4.5,2.4-7.7,6.3-7.7
			c3.8,0,5.7,2.9,5.7,7.1v0.6H16.7C16.7,18,18.9,20.1,21.9,20.1z M16.7,12.8h8.8c-0.1-2.5-1.3-4.9-4.2-4.9
			C18.9,7.9,17.1,9.6,16.7,12.8z"/>
		<path class="st1" d="M31.1,21.2h-1.6V0h1.6V21.2z"/>
		<path class="st1" d="M40.4,20.1c1.6,0,2.8-0.4,4.1-1.4v1.6c-1.1,0.9-2.5,1.3-4.2,1.3c-4,0-6.8-2.9-6.8-7.4c0-4.5,2.4-7.7,6.3-7.7
			c3.8,0,5.7,2.9,5.7,7.1v0.6H35.1C35.1,18,37.4,20.1,40.4,20.1z M35.2,12.8H44c-0.1-2.5-1.3-4.9-4.2-4.9
			C37.4,7.9,35.6,9.6,35.2,12.8z"/>
		<path class="st1" d="M54.7,8.2C54.3,8.1,53.9,8,53.4,8c-1.8,0-3.2,1.3-3.8,3.1v10.1h-1.6V6.7h1.6V9c0.7-1.4,2.1-2.6,3.9-2.6
			c0.6,0,0.9,0.1,1.3,0.2V8.2z"/>
		<path class="st1" d="M57.3,3.4c-0.6,0-1.1-0.5-1.1-1.1c0-0.6,0.5-1.1,1.1-1.1c0.6,0,1.1,0.5,1.1,1.1C58.4,2.9,57.9,3.4,57.3,3.4z
			 M58.1,21.2h-1.6V6.7h1.6V21.2z"/>
		<path class="st1" d="M72.6,21.2h-2L63,13.8v7.4h-1.6V0H63v13.1l7.3-6.3h2.1l-7.7,6.6L72.6,21.2z"/>
		<path class="st1" d="M82.1,18.5c1.3,1,2.4,1.4,3.8,1.4c2.6,0,3.8-1.5,3.8-5.2V1.2h1.7v13.7c0,4.6-2,6.7-5.4,6.7
			c-1.6,0-3-0.6-3.8-1.2V18.5z"/>
		<path class="st1" d="M105.8,21.2h-1.6v-2.3c-0.9,1.4-2.5,2.6-4.6,2.6c-3.3,0-5-2.1-5-5.2V6.7h1.6v9.4c0,2.3,1.1,3.9,3.7,3.9
			c2,0,3.6-1.4,4.3-3.1V6.7h1.6V21.2z"/>
		<path class="st1" d="M108.2,18.3c1.3,1.1,2.7,1.8,4.6,1.8c1.8,0,3.5-0.7,3.5-2.6c0-1.2-0.8-2-2.3-2.5l-2.4-0.9
			c-2-0.7-3.4-1.6-3.4-3.8c0-2.4,2.2-3.8,4.8-3.8c1.5,0,3.1,0.5,4.2,1.3v1.8c-1.2-0.9-2.4-1.6-4.2-1.6c-1.7,0-3.2,0.8-3.2,2.3
			c0,1.4,0.9,1.9,2.5,2.5l2.5,0.9c2,0.7,3.1,1.9,3.1,3.8c0,2.6-2.3,4.1-5.1,4.1c-1.9,0-3.7-0.7-4.6-1.4V18.3z"/>
		<path class="st1" d="M123.6,21.2H122V8.1h-3.1V6.7h3.1V3h1.6v3.7h3.4v1.4h-3.4V21.2z"/>
		<path class="st1" d="M138.1,16.6l-7.6-12.3v16.9h-1.6v-20h1.5l7.8,12.7L146,1.2h1.4v20h-1.6V4.3L138.1,16.6L138.1,16.6z"/>
		<path class="st1" d="M156.6,21.5c-3.8,0-6.4-3.1-6.4-7.5c0-4.5,2.6-7.5,6.4-7.5c3.8,0,6.4,3.1,6.4,7.5
			C163,18.4,160.4,21.5,156.6,21.5z M156.6,7.9c-2.9,0-4.8,2.4-4.8,6.1s1.9,6.1,4.8,6.1c2.9,0,4.8-2.4,4.8-6.1S159.5,7.9,156.6,7.9z
			"/>
		<path class="st1" d="M171.3,6.4c1.4,0,2.8,0.4,3.8,1.3v1.7c-1.1-1-2.3-1.5-3.8-1.5c-2.9,0-5.2,2.3-5.2,6.1s2.3,6.1,5.2,6.1
			c1.4,0,2.6-0.4,3.8-1.5v1.7c-1,0.9-2.4,1.3-3.8,1.3c-3.9,0-6.8-3-6.8-7.5C164.6,9.4,167.5,6.4,171.3,6.4z"/>
		<path class="st1" d="M188.4,21.2h-2l-7.5-7.4v7.4h-1.6V0h1.6v13.1l7.3-6.3h2.1l-7.7,6.6L188.4,21.2z"/>
	</g>
	<path class="st1" d="M76.3,7.9c-1.2,0-2.1-0.9-2.1-2.1c0-1.2,1-2.1,2.1-2.1s2.1,0.9,2.1,2.1C78.5,7,77.5,7.9,76.3,7.9 M76.3,4
		c-1,0-1.7,0.7-1.7,1.8s0.8,1.8,1.7,1.8c1,0,1.7-0.7,1.7-1.8S77.3,4,76.3,4 M76.1,6.1v0.7h-0.6V4.6h1c0.5,0,0.8,0.3,0.8,0.8
		c0,0.3-0.2,0.6-0.4,0.7l0.5,0.8h-0.7l-0.4-0.7H76.1z M76.5,5.1h-0.3v0.5h0.3c0.2,0,0.3-0.1,0.3-0.2C76.7,5.2,76.6,5.1,76.5,5.1"/>
</g>
</svg>
