<?xml version="1.0" encoding="utf-8"?>
<!-- Generator: Adobe Illustrator 22.1.0, SVG Export Plug-In . SVG Version: 6.00 Build 0)  -->
<svg version="1.1" id="Layer_1" xmlns="http://www.w3.org/2000/svg" xmlns:xlink="http://www.w3.org/1999/xlink" x="0px" y="0px"
	 viewBox="0 0 323 40" style="enable-background:new 0 0 323 40;" xml:space="preserve">
<style type="text/css">
	.st0{opacity:0.4;fill:#FFFFFF;enable-background:new    ;}
	.st1{fill:#FFFFFF;}
</style>
<g id="Docs">
	<path id="docs" class="st0" d="M0,30.8h3.1c2.6,0,4.3,1.7,4.3,4.4s-1.7,4.4-4.3,4.4H0V30.8z M3,38c1.7,0,2.6-1.1,2.6-2.8
		S4.7,32.4,3,32.4H1.8v5.5L3,38L3,38z M12.8,39.7c-2.4,0-4.1-1.9-4.1-4.5s1.7-4.5,4.1-4.5s4.1,1.9,4.1,4.5
		C16.9,37.8,15.2,39.7,12.8,39.7z M12.8,32.3c-1.4,0-2.3,1.2-2.3,2.9s0.9,2.9,2.3,2.9s2.3-1.2,2.3-2.9S14.2,32.3,12.8,32.3z
		 M22.5,30.7c1,0,1.7,0.3,2.3,0.7v1.8c-0.7-0.6-1.4-0.9-2.2-0.9c-1.6,0-2.6,1.1-2.6,2.8s1,2.8,2.6,2.8c0.8,0,1.5-0.3,2.2-0.8v1.8
		c-0.6,0.4-1.3,0.7-2.3,0.7c-2.5,0-4.3-1.8-4.3-4.5C18.2,32.5,20,30.7,22.5,30.7z M26.6,36.1v-5.2h1.8v5c0,1.5,0.7,2.2,1.8,2.2
		s1.8-0.7,1.8-2.2v-5h1.8v5.2c0,2.4-1.4,3.6-3.6,3.6C28.1,39.7,26.6,38.5,26.6,36.1z M40.2,37.7L37.7,34v5.6h-1.8v-8.7h1.7l2.6,4.1
		l2.6-4.1h1.7v8.7h-1.8V34L40.2,37.7L40.2,37.7z M52.7,30.8v1.6h-4.1v1.9h3.7v1.5h-3.7v2.1h4.1v1.6h-5.9v-8.7
		C46.8,30.8,52.7,30.8,52.7,30.8z M61.9,39.6h-1.4l-4.1-5.8v5.8h-1.7v-8.7h1.7l3.8,5.5v-5.5h1.7V39.6z M63.4,30.8h7.4v1.6H68v7.1
		h-1.8v-7.1h-2.8C63.4,32.4,63.4,30.8,63.4,30.8z M75.9,30.8l3.3,8.7h-1.8l-0.8-2.1h-3.3l-0.8,2.1h-1.8l3.3-8.7
		C74,30.8,75.9,30.8,75.9,30.8z M73.9,35.9H76L74.9,33L73.9,35.9z M79.1,30.8h7.4v1.6h-2.8v7.1h-1.8v-7.1h-2.8
		C79.1,32.4,79.1,30.8,79.1,30.8z M89.8,39.6H88v-8.7h1.8V39.6z M95.6,39.7c-2.4,0-4.1-1.9-4.1-4.5s1.7-4.5,4.1-4.5s4.1,1.9,4.1,4.5
		C99.8,37.8,98.1,39.7,95.6,39.7z M95.6,32.3c-1.4,0-2.3,1.2-2.3,2.9s0.9,2.9,2.3,2.9s2.3-1.2,2.3-2.9S97,32.3,95.6,32.3z
		 M108.8,39.6h-1.4l-4.1-5.8v5.8h-1.7v-8.7h1.7l3.8,5.5v-5.5h1.7V39.6z M118.7,30.8l3.3,8.7h-1.8l-0.8-2.1h-3.3l-0.8,2.1h-1.8
		l3.3-8.7C116.8,30.8,118.7,30.8,118.7,30.8z M116.8,35.9h2.1l-1.1-2.9L116.8,35.9z M130.8,39.6h-1.4l-4.1-5.8v5.8h-1.7v-8.7h1.7
		l3.8,5.5v-5.5h1.7V39.6z M133,30.8h3.1c2.6,0,4.3,1.7,4.3,4.4s-1.7,4.4-4.3,4.4H133V30.8z M136,38c1.7,0,2.6-1.1,2.6-2.8
		s-0.9-2.8-2.6-2.8h-1.2v5.5L136,38L136,38z M149.9,30.8l3.3,8.7h-1.8l-0.8-2.1h-3.3l-0.8,2.1h-1.8l3.3-8.7
		C148,30.8,149.9,30.8,149.9,30.8z M147.9,35.9h2.1l-1.1-2.9L147.9,35.9z M156.4,36.5v3h-1.8v-8.7h3.5c1.8,0,3.1,1,3.1,2.9
		c0,1.8-1.2,2.8-3.1,2.8H156.4z M158.1,32.4h-1.6V35h1.6c0.9,0,1.4-0.5,1.4-1.3C159.4,32.9,159,32.4,158.1,32.4z M164.6,39.6h-1.8
		v-8.7h1.8V39.6z M171.8,36.3v3.3H170v-8.7h3.6c1.8,0,3.1,1,3.1,2.8c0,1.4-0.8,2.3-2,2.6l2.3,3.4h-2l-2.2-3.3L171.8,36.3L171.8,36.3
		z M171.8,34.8h1.7c0.9,0,1.4-0.5,1.4-1.2s-0.5-1.2-1.4-1.2h-1.7V34.8z M184.3,30.8v1.6h-4.1v1.9h3.7v1.5h-3.7v2.1h4.1v1.6h-5.9
		v-8.7C178.4,30.8,184.3,30.8,184.3,30.8z M186.3,39.6v-8.7h5.8v1.6h-4v2.2h3.7v1.6h-3.7v3.3C188.1,39.6,186.3,39.6,186.3,39.6z
		 M199.7,30.8v1.6h-4.1v1.9h3.7v1.5h-3.7v2.1h4.1v1.6h-5.9v-8.7C193.8,30.8,199.7,30.8,199.7,30.8z M203.5,36.3v3.3h-1.8v-8.7h3.6
		c1.8,0,3.1,1,3.1,2.8c0,1.4-0.8,2.3-2,2.6l2.3,3.4h-2l-2.2-3.3L203.5,36.3L203.5,36.3z M203.5,34.8h1.7c0.9,0,1.4-0.5,1.4-1.2
		s-0.5-1.2-1.4-1.2h-1.7V34.8z M216,30.8v1.6h-4.1v1.9h3.7v1.5h-3.7v2.1h4.1v1.6h-5.9v-8.7C210.1,30.8,216,30.8,216,30.8z
		 M225.3,39.6h-1.4l-4.1-5.8v5.8H218v-8.7h1.7l3.8,5.5v-5.5h1.7v8.7H225.3z M231.4,30.7c1,0,1.7,0.3,2.3,0.7v1.8
		c-0.7-0.6-1.4-0.9-2.2-0.9c-1.6,0-2.6,1.1-2.6,2.8s1,2.8,2.6,2.8c0.8,0,1.5-0.3,2.2-0.8v1.8c-0.6,0.4-1.3,0.7-2.3,0.7
		c-2.5,0-4.3-1.8-4.3-4.5C227.1,32.5,228.9,30.7,231.4,30.7z M241.5,30.8v1.6h-4.1v1.9h3.7v1.5h-3.7v2.1h4.1v1.6h-5.9v-8.7
		C235.6,30.8,241.5,30.8,241.5,30.8z"/>
</g>
<g>
	<path class="st1" d="M72.3,7.9c-1.2,0-2.1-0.9-2.1-2.1s1-2.1,2.1-2.1s2.1,0.9,2.1,2.1C74.5,7,73.5,7.9,72.3,7.9 M72.3,4
		c-1,0-1.7,0.7-1.7,1.8s0.8,1.8,1.7,1.8c1,0,1.7-0.7,1.7-1.8S73.3,4,72.3,4 M72.1,6.1v0.7h-0.6V4.6h1c0.5,0,0.8,0.3,0.8,0.8
		c0,0.3-0.2,0.6-0.4,0.7l0.5,0.8h-0.7l-0.4-0.7h-0.2C72.1,6.2,72.1,6.1,72.1,6.1z M72.5,5.1h-0.3v0.5h0.3c0.2,0,0.3-0.1,0.3-0.2
		C72.7,5.2,72.6,5.1,72.5,5.1"/>
</g>
<g>
	<path class="st1" d="M198.1,7.9c-1.2,0-2.1-0.9-2.1-2.1s1-2.1,2.1-2.1c1.1,0,2.1,0.9,2.1,2.1C200.3,7,199.3,7.9,198.1,7.9 M198.1,4
		c-1,0-1.7,0.7-1.7,1.8s0.8,1.8,1.7,1.8c1,0,1.7-0.7,1.7-1.8S199.1,4,198.1,4 M197.9,6.1v0.7h-0.6V4.6h1c0.5,0,0.8,0.3,0.8,0.8
		c0,0.3-0.2,0.6-0.4,0.7l0.5,0.8h-0.7l-0.4-0.7h-0.2C197.9,6.2,197.9,6.1,197.9,6.1z M198.3,5.1H198v0.5h0.3c0.2,0,0.3-0.1,0.3-0.2
		C198.5,5.2,198.4,5.1,198.3,5.1"/>
</g>
<g>
	<path class="st1" d="M0.5,2.7H16v1.5H9v17.6H7.5V4.2h-7V2.7z"/>
	<path class="st1" d="M21.3,20.7c1.6,0,2.7-0.4,3.9-1.4v1.5c-1,0.8-2.4,1.2-4,1.2c-3.8,0-6.4-2.7-6.4-7c0-4.2,2.3-7.3,6-7.3
		c3.6,0,5.5,2.7,5.5,6.7V15h-9.9C16.3,18.7,18.5,20.7,21.3,20.7z M16.4,13.7h8.3c-0.1-2.4-1.2-4.7-4-4.7
		C18.5,9.1,16.7,10.8,16.4,13.7z"/>
	<path class="st1" d="M29.8,21.8h-1.5V1.6h1.5V21.8z"/>
	<path class="st1" d="M38.4,20.7c1.6,0,2.7-0.4,3.9-1.4v1.5c-1,0.8-2.4,1.2-4,1.2c-3.8,0-6.4-2.7-6.4-7c0-4.2,2.3-7.3,6-7.3
		c3.6,0,5.5,2.7,5.5,6.7V15h-9.9C33.4,18.7,35.6,20.7,38.4,20.7z M33.5,13.7h8.3c-0.1-2.4-1.2-4.7-4-4.7
		C35.6,9.1,33.8,10.8,33.5,13.7z"/>
	<path class="st1" d="M51.8,9.4c-0.4-0.2-0.8-0.2-1.3-0.2c-1.7,0-3,1.2-3.7,3v9.6h-1.5V8h1.5v2.2c0.6-1.4,2-2.5,3.7-2.5
		c0.5,0,0.9,0.1,1.2,0.2L51.8,9.4L51.8,9.4z"/>
	<path class="st1" d="M54.1,4.9c-0.6,0-1.1-0.5-1.1-1.1s0.5-1.1,1.1-1.1s1.1,0.5,1.1,1.1C55.2,4.4,54.7,4.9,54.1,4.9z M54.9,21.8
		h-1.6V8h1.6V21.8z"/>
	<path class="st1" d="M68.7,21.8h-1.9l-7.2-7.1v7.1H58V1.6h1.6V14l6.9-6h2l-7.3,6.3L68.7,21.8z"/>
	<path class="st1" d="M80.2,2.7h15.5v1.5h-7v17.6h-1.6V4.2h-6.9V2.7z"/>
	<path class="st1" d="M101,20.7c1.6,0,2.7-0.4,3.9-1.4v1.5c-1,0.8-2.4,1.2-4,1.2c-3.8,0-6.4-2.7-6.4-7c0-4.2,2.3-7.3,6-7.3
		c3.6,0,5.5,2.7,5.5,6.7V15h-9.9C95.9,18.7,98.1,20.7,101,20.7z M96,13.7h8.3c-0.1-2.4-1.2-4.7-4-4.7C98.1,9.1,96.4,10.8,96,13.7z"
		/>
	<path class="st1" d="M107.1,19c1.2,1.1,2.6,1.7,4.4,1.7c1.7,0,3.3-0.7,3.3-2.4c0-1.2-0.8-1.9-2.2-2.4l-2.3-0.8
		c-1.9-0.7-3.2-1.6-3.2-3.7c0-2.3,2-3.6,4.6-3.6c1.5,0,2.9,0.4,4,1.2v1.7c-1.1-0.9-2.3-1.6-4-1.6c-1.6,0-3,0.8-3,2.2
		c0,1.3,0.9,1.8,2.4,2.4l2.4,0.9c1.9,0.7,2.9,1.8,2.9,3.6c0,2.5-2.2,3.9-4.8,3.9c-1.8,0-3.5-0.6-4.4-1.4V19H107.1z"/>
	<path class="st1" d="M121.4,21.8h-1.6V9.3h-2.9V8h2.9V4.5h1.6V8h3.3v1.3h-3.3V21.8z"/>
	<path class="st1" d="M130.8,18.3c1.8,1.6,3.7,2.3,5.9,2.3c2.7,0,4.5-1.4,4.5-3.6c0-1.9-1.1-2.7-3.4-3.7l-2.8-1.2
		c-2-0.8-4.1-2-4.1-4.9c0-3.2,2.7-4.8,5.8-4.8c2,0,3.9,0.6,5.3,1.6v1.8c-1.5-1.2-3.2-1.9-5.3-1.9c-2.4,0-4.2,1.1-4.2,3.3
		c0,1.9,1.3,2.7,3.3,3.5l2.9,1.2c2.8,1.2,4.1,2.6,4.1,5c0,3-2.5,5.1-6,5.1c-2.5,0-4.7-0.8-5.9-1.9v-1.8H130.8z"/>
	<path class="st1" d="M147.8,21.8h-1.6V9.3h-2.9V8h2.9V4.5h1.6V8h3.3v1.3h-3.3V21.8z"/>
	<path class="st1" d="M163.2,21.8h-1.5v-2.2c-0.8,1.3-2.4,2.5-4.4,2.5c-3.1,0-4.8-2-4.8-4.9V8h1.5v8.9c0,2.1,1.1,3.7,3.5,3.7
		c1.9,0,3.4-1.3,4.1-3V8h1.5L163.2,21.8L163.2,21.8z"/>
	<path class="st1" d="M175.6,19.7c-0.8,1.2-2.4,2.3-4.3,2.3c-4.1,0-6-3.3-6-7.2s2-7.2,6-7.2c1.9,0,3.5,1.1,4.3,2.3V1.6h1.5v20.2
		h-1.5V19.7z M175.6,11.9c-0.9-1.8-2.5-2.7-4.2-2.7c-2.9,0-4.6,2.4-4.6,5.7s1.7,5.7,4.6,5.7c1.7,0,3.2-1,4.2-2.7V11.9z"/>
	<path class="st1" d="M181,4.9c-0.6,0-1.1-0.5-1.1-1.1s0.5-1.1,1.1-1.1s1.1,0.5,1.1,1.1C182,4.4,181.6,4.9,181,4.9z M181.8,21.8
		h-1.6V8h1.6V21.8z"/>
	<path class="st1" d="M189.9,22.1c-3.6,0-6.1-2.9-6.1-7.2s2.4-7.2,6.1-7.2c3.7,0,6.1,2.9,6.1,7.2S193.6,22.1,189.9,22.1z M189.9,9.1
		c-2.7,0-4.5,2.3-4.5,5.8s1.8,5.8,4.5,5.8c2.8,0,4.6-2.3,4.6-5.8S192.7,9.1,189.9,9.1z"/>
	<path class="st1" d="M204.9,2.7h5.8c5.5,0,9.2,3.7,9.2,9.5s-3.7,9.5-9.2,9.5h-5.8V2.7z M210.7,20.3c4.7,0,7.6-3.2,7.6-8.1
		s-2.9-8.1-7.6-8.1h-4.2v16.1h4.2V20.3z"/>
	<path class="st1" d="M227.8,20.7c1.6,0,2.7-0.4,3.9-1.4v1.5c-1,0.8-2.4,1.2-4,1.2c-3.8,0-6.4-2.7-6.4-7c0-4.2,2.3-7.3,6-7.3
		c3.6,0,5.5,2.7,5.5,6.7V15h-9.9C222.7,18.7,224.9,20.7,227.8,20.7z M222.8,13.7h8.3c-0.1-2.4-1.2-4.7-4-4.7
		C224.9,9.1,223.2,10.8,222.8,13.7z"/>
	<path class="st1" d="M238.3,21.8L232.8,8h1.6l4.5,11.6L243.5,8h1.6l-5.5,13.8H238.3z"/>
	<path class="st1" d="M264.2,2.7v1.5h-10.3v7h9.3v1.5h-9.3v7.6h10.3v1.5h-11.8v-19L264.2,2.7L264.2,2.7z"/>
	<path class="st1" d="M275.8,19.7c-0.8,1.2-2.4,2.3-4.3,2.3c-4.1,0-6-3.3-6-7.2s2-7.2,6-7.2c1.9,0,3.5,1.1,4.3,2.3V1.6h1.5v20.2
		h-1.5V19.7z M275.8,11.9c-0.9-1.8-2.5-2.7-4.2-2.7c-2.9,0-4.6,2.4-4.6,5.7s1.7,5.7,4.6,5.7c1.7,0,3.2-1,4.2-2.7V11.9z"/>
	<path class="st1" d="M281.2,4.9c-0.6,0-1.1-0.5-1.1-1.1s0.5-1.1,1.1-1.1s1.1,0.5,1.1,1.1C282.3,4.4,281.8,4.9,281.2,4.9z M282,21.8
		h-1.6V8h1.6V21.8z"/>
	<path class="st1" d="M288.1,21.8h-1.5V9.3h-2.9V8h2.9V4.5h1.5V8h3.3v1.3h-3.3V21.8z"/>
	<path class="st1" d="M293.6,4.9c-0.6,0-1.1-0.5-1.1-1.1s0.5-1.1,1.1-1.1s1.1,0.5,1.1,1.1S294.2,4.9,293.6,4.9z M294.4,21.8h-1.6V8
		h1.6V21.8z"/>
	<path class="st1" d="M302.6,22.1c-3.6,0-6.1-2.9-6.1-7.2s2.5-7.2,6.1-7.2c3.7,0,6.1,2.9,6.1,7.2S306.3,22.1,302.6,22.1z M302.6,9.1
		c-2.7,0-4.5,2.3-4.5,5.8s1.8,5.8,4.5,5.8c2.8,0,4.6-2.3,4.6-5.8S305.4,9.1,302.6,9.1z"/>
	<path class="st1" d="M310.8,8h1.6v2.2c0.8-1.3,2.4-2.5,4.4-2.5c3.1,0,4.8,2,4.8,4.9v9.1H320v-8.9c0-2.1-1.1-3.7-3.5-3.7
		c-1.9,0-3.4,1.3-4.1,3v9.6h-1.6V8z"/>
</g>
</svg>
